<?xml version="1.0" encoding="UTF-8"?>
<!DOCTYPE svg PUBLIC "-//W3C//DTD SVG 1.1//EN" "http://www.w3.org/Graphics/SVG/1.1/DTD/svg11.dtd">
<!-- Creator: CorelDRAW -->
<svg xmlns="http://www.w3.org/2000/svg" xml:space="preserve" width="28.2458mm" height="19.4567mm" version="1.1" style="shape-rendering:geometricPrecision; text-rendering:geometricPrecision; image-rendering:optimizeQuality; fill-rule:evenodd; clip-rule:evenodd"
viewBox="0 0 67.23 46.31"
 xmlns:xlink="http://www.w3.org/1999/xlink"
 xmlns:xodm="http://www.corel.com/coreldraw/odm/2003">
 <defs>
  <style type="text/css">
   <![CDATA[
    .fil0 {fill:#CD9C20}
   ]]>
  </style>
 </defs>
 <g id="Camada_x0020_1">
  <metadata id="CorelCorpID_0Corel-Layer"/>
  <path class="fil0" d="M0.06 46.31l-0.06 -2.51c7.19,0 21.53,0.04 21.53,0.04 15.49,-1.95 14.88,-41.06 -0.01,-41.46 -7.13,-0.19 -14.24,-0.07 -21.38,-0.07l-0.08 -2.29 10.66 0c12.1,-0.04 24.2,0 36.19,0 3.43,0 5.95,0.36 7.57,1.07 1.63,0.72 3.01,2.05 4.13,3.97 1.13,1.92 1.7,4.21 1.7,6.88 0,2.85 -0.65,5.32 -1.94,7.41 -1.3,2.09 -3.29,3.57 -6,4.45l6.67 13.25c1.52,3.05 2.83,5.08 3.92,6.09 1.09,1.01 4.27,0.7 4.27,0.7l0 2.48 -11.03 0 -11.31 -20.91c-0.79,0.05 -1.43,0.07 -1.92,0.07 -0.2,0 -0.42,-0.01 -0.65,-0.02 -0.23,-0.01 -0.47,-0.02 -0.72,-0.05l0 13.48c0,2.91 -0.15,3.55 0.28,4.26 0.61,0.99 1.45,0.7 2.65,0.71l4.45 0.03 0 2.43 -13.81 0 -20.73 0 -3.05 0c-0.25,0 -0.39,0 -0.39,0l-10.94 0zm40.72 -23.81c0.4,0 0.75,0 1.04,0.01 0.29,0.01 0.53,0.02 0.72,0.02 4.08,0 7.15,-0.95 9.22,-2.86 2.08,-1.92 3.11,-4.35 3.11,-7.31 0,-2.89 -0.84,-5.24 -2.5,-7.05 -1.67,-1.8 -3.89,-2.71 -6.64,-2.71 -1.22,0 -2.87,0.21 -4.95,0.63l0 19.27z"/>
  <path class="fil0" d="M5.46 3.19l8.93 0c-0.42,0.27 -0.54,0.66 -0.6,1.25l0.07 37.06c0.02,0.51 0.14,0.85 0.53,1.36l-8.93 0c0.42,-0.48 0.69,-0.97 0.7,-1.48 0.21,-12.3 -0.24,-24.64 -0.03,-36.94 0.03,-0.52 -0.23,-0.9 -0.67,-1.25zm2.42 1.21l0.58 0 0 36.69 -0.58 0 0 -36.69zm1.56 0l0.58 0 0 36.69 -0.58 0 0 -36.69zm1.56 0l0.58 0 0 36.69 -0.58 0 0 -36.69z"/>
 </g>
</svg>
